<svg width="9" height="16" viewBox="0 0 9 16" fill="none" xmlns="http://www.w3.org/2000/svg">
<path fill-rule="evenodd" clip-rule="evenodd" d="M2.3736 7.95044L8.57096 1.68298C8.75441 1.49583 8.85716 1.2442 8.85716 0.982135C8.85716 0.720071 8.75441 0.468503 8.57096 0.281351C8.38427 0.100897 8.13481 1.12738e-05 7.87516 1.12738e-05C7.61551 1.12738e-05 7.36601 0.100897 7.17933 0.281351L0.291137 7.28968C0.104665 7.47726 -1.05391e-05 7.73097 -1.05391e-05 7.99547C-1.05391e-05 8.25997 0.104665 8.51374 0.291137 8.70133L7.17933 15.7097C7.36333 15.8922 7.61097 15.9963 7.87015 16C8.06611 15.9972 8.25695 15.937 8.41902 15.8269C8.58109 15.7167 8.70723 15.5613 8.78185 15.3801C8.85647 15.1989 8.87628 14.9998 8.8388 14.8074C8.80131 14.615 8.70817 14.4379 8.57096 14.298L2.3736 7.95044Z" fill="black"/>
</svg>
