<svg width="16" height="16" viewBox="0 0 16 16" fill="none" xmlns="http://www.w3.org/2000/svg">
<path fill-rule="evenodd" clip-rule="evenodd" d="M15.7 3.89034L13.7 0.89034C13.514 0.611378 13.2607 0.383659 12.9637 0.228139C12.6666 0.0726195 12.3353 -0.00572374 12 0.000325571H4C3.67149 0.0009338 3.34818 0.0824659 3.05865 0.237691C2.76913 0.392917 2.52235 0.61707 2.34003 0.89034L0.340027 3.89034C0.119441 4.21859 0.00109512 4.60485 0 5.00033V14.0003C0 14.5308 0.210743 15.0395 0.585815 15.4145C0.960888 15.7896 1.46957 16.0003 2 16.0003H14C14.5304 16.0003 15.0391 15.7896 15.4142 15.4145C15.7893 15.0395 16 14.5308 16 14.0003V5.00033C16.0108 4.60894 15.9065 4.223 15.7 3.89034ZM4 2.00033H7V5.00033H2L4 2.00033ZM14 14.0003H2V7.00033H14V14.0003ZM9 5.00033V2.00033H12L14 5.00033H9ZM6 10.0003H10C10.2652 10.0003 10.5196 9.89495 10.7071 9.70742C10.8946 9.51988 11 9.26554 11 9.00033C11 8.73511 10.8946 8.48077 10.7071 8.29323C10.5196 8.1057 10.2652 8.00033 10 8.00033H6C5.73478 8.00033 5.48044 8.1057 5.29291 8.29323C5.10537 8.48077 5 8.73511 5 9.00033C5 9.26554 5.10537 9.51988 5.29291 9.70742C5.48044 9.89495 5.73478 10.0003 6 10.0003Z" fill="#292929"/>
</svg>
