<svg width="16" height="8" viewBox="0 0 16 8" fill="none" xmlns="http://www.w3.org/2000/svg">
<path fill-rule="evenodd" clip-rule="evenodd" d="M1.0001 5.01492L12.5601 5.01492L11.2601 6.29495C11.0769 6.48188 10.9742 6.73315 10.9742 6.9949C10.9742 7.25666 11.0769 7.50799 11.2601 7.69492C11.3531 7.78865 11.4637 7.86302 11.5855 7.91379C11.7074 7.96456 11.8381 7.99069 11.9701 7.99069C12.1021 7.99069 12.2328 7.96456 12.3547 7.91379C12.4765 7.86302 12.5871 7.78865 12.6801 7.69492L15.6801 4.69492C15.7622 4.60985 15.8297 4.5119 15.8801 4.40494L15.8801 4.3049C15.8906 4.2219 15.8906 4.13791 15.8801 4.0549C15.8852 4.02176 15.8852 3.98807 15.8801 3.95493C15.8796 3.84875 15.8593 3.74361 15.8201 3.64493C15.7711 3.53719 15.7034 3.43902 15.6201 3.35495L12.6201 0.354951C12.5312 0.249686 12.4215 0.163918 12.2978 0.103059C12.1742 0.0421998 12.0393 0.00752463 11.9017 0.0012523C11.764 -0.00502003 11.6266 0.0172568 11.4979 0.0666209C11.3693 0.115985 11.2522 0.191376 11.1541 0.288117C11.056 0.384859 10.9789 0.500819 10.9277 0.628755C10.8765 0.756691 10.8523 0.89386 10.8567 1.03159C10.861 1.16931 10.8937 1.30463 10.9528 1.42911C11.0119 1.55359 11.0961 1.66451 11.2001 1.75491L12.5601 3.01492L1.0001 3.01492C0.73488 3.01492 0.480525 3.12029 0.292989 3.30783C0.105453 3.49537 9.66919e-05 3.74971 9.66687e-05 4.01492C9.66455e-05 4.28014 0.105453 4.53448 0.292989 4.72202C0.480525 4.90955 0.73488 5.01492 1.0001 5.01492Z" fill="#292929"/>
</svg>
