<svg width="114" height="19" viewBox="0 0 114 19" fill="none" xmlns="http://www.w3.org/2000/svg">
<path fill-rule="evenodd" clip-rule="evenodd" d="M28.8223 18.6713L34.0792 18.6919L34.764 11.0919L38.9131 18.6713H43.5456L45.0562 1.76648L39.8194 1.78702L39.2152 8.62702L35.5898 1.78702H30.3329L28.8223 18.6713Z" fill="white"/>
<path fill-rule="evenodd" clip-rule="evenodd" d="M64.9961 1.78702L63.4855 18.6919H64.13H68.7625L69.3063 12.694H73.254L72.7102 18.6919H77.947C78.5311 13.0638 78.9138 7.43567 79.4576 1.78702H74.2007L73.677 7.66161H69.7293L70.253 1.78702H64.9961V1.78702Z" fill="white"/>
<path fill-rule="evenodd" clip-rule="evenodd" d="M80.3438 18.6713H85.1374L86.2653 6.24432C86.2653 6.03891 86.2452 5.91567 86.4466 5.91567C91.2604 5.91567 90.5554 10.7632 86.2653 11.0919C87.1112 13.6184 87.9773 16.1449 88.8233 18.6713H94.0197L91.3611 12.0573C95.1074 10.414 96.1144 1.76648 86.7084 1.76648H82.0356C81.8745 1.76648 81.8141 1.97188 81.8141 2.13621L80.3438 18.6713Z" fill="white"/>
<path fill-rule="evenodd" clip-rule="evenodd" d="M18.2883 11.1124L17.6035 18.6713H22.377L23.0618 11.1124L28.4999 1.78702H23.8473L20.8059 7.08648L17.8452 1.78702H13.5551L18.2883 11.1124Z" fill="white"/>
<path fill-rule="evenodd" clip-rule="evenodd" d="M4.31025 11.6876C4.91449 11.9546 5.4583 12.2216 6.0424 12.5297C8.25795 13.8854 7.25088 16.0421 4.4311 16.0421C3.54488 16.0421 2.4371 15.8573 1.65159 15.5286C1.22862 15.3643 0.926502 15.1384 0.725088 15.2205C0.624382 15.2616 0.543816 15.4054 0.483392 15.693C0.362544 16.3708 0 17.3773 0 18.0346C0 18.2194 0.362544 18.2811 0.523675 18.3427C3.00106 18.9794 3.96784 19.1232 6.58622 18.9178C7.83498 18.8151 9.36572 18.0962 10.2117 17.1103C10.8965 16.3092 11.118 15.5697 11.3396 14.5838C11.5208 13.1049 11.4806 11.8108 10.5541 10.5578C8.78163 8.2162 5.98198 8.46269 4.71307 7.2508C4.14912 6.71674 4.24982 5.7308 4.71307 5.23782C5.76042 4.08755 9.10389 4.74485 10.2922 5.0735C10.4534 5.11458 10.4735 5.13512 10.6145 5.05296C10.7958 4.92972 10.836 4.64215 10.8965 4.35458L11.0375 3.53296C11.0979 3.20431 11.2792 2.67026 11.2792 2.30053C10.8562 2.09512 10.6346 2.0335 10.1915 1.91026C9.66784 1.76647 8.92261 1.62269 8.39894 1.60215C5.82085 1.51999 2.77951 1.49944 1.1682 4.10809C-0.866078 7.41512 1.2689 10.2908 4.31025 11.6876Z" fill="white"/>
<path fill-rule="evenodd" clip-rule="evenodd" d="M99.881 9.96215C100.223 7.20972 102.64 4.9708 105.259 4.9708C107.877 4.9708 109.73 7.20972 109.388 9.96215C109.045 12.7146 106.628 14.9535 104.01 14.9535C101.392 14.9535 99.5385 12.7146 99.881 9.96215ZM113.919 9.81837C114.604 4.92972 110.979 0.965393 105.803 0.965393C100.626 0.965393 95.893 4.92972 95.2082 9.81837C94.5234 14.707 98.1689 18.6713 103.325 18.6713C108.501 18.6713 113.235 14.707 113.919 9.81837Z" fill="white"/>
<path fill-rule="evenodd" clip-rule="evenodd" d="M51.461 9.85947C51.743 7.66163 53.9384 5.85407 56.3957 5.85407C57.7451 5.85407 58.873 6.38812 59.578 7.25082L62.3373 2.83461C60.8066 1.70488 58.8328 1.02704 56.6172 1.02704C51.2798 1.02704 46.5868 4.97082 46.1437 9.83893C45.7006 14.707 49.6886 18.6508 55.0261 18.6508C57.5236 18.6508 59.8801 17.7881 61.713 16.3708L58.9536 12.386C58.0271 13.2692 56.7381 13.8238 55.3685 13.8238C52.9515 13.8443 51.1791 12.0573 51.461 9.85947Z" fill="white"/>
<path fill-rule="evenodd" clip-rule="evenodd" d="M23.8473 0H17.8452L20.806 5.29946L23.8473 0Z" fill="#E8AC4E"/>
</svg>
