<svg width="16" height="16" viewBox="0 0 16 16" fill="none" xmlns="http://www.w3.org/2000/svg">
<path fill-rule="evenodd" clip-rule="evenodd" d="M15.5 2.73001C15.3173 2.50754 15.0886 2.32713 14.8297 2.20114C14.5709 2.07515 14.2878 2.00654 14 2H4V1C4 0.734784 3.89463 0.480444 3.70709 0.292908C3.51956 0.105371 3.26522 0 3 0H1C0.734784 0 0.480444 0.105371 0.292908 0.292908C0.105371 0.480444 0 0.734784 0 1C0 1.26522 0.105371 1.51956 0.292908 1.70709C0.480444 1.89463 0.734784 2 1 2H2V9C2 9.53043 2.21071 10.0391 2.58578 10.4142C2.96086 10.7893 3.46957 11 4 11H13C13.4607 10.9973 13.9064 10.8356 14.2617 10.5423C14.6171 10.2489 14.8602 9.84193 14.95 9.39001L15.95 4.39001C16.0032 4.09727 15.9904 3.79633 15.9126 3.50916C15.8347 3.22198 15.6938 2.95581 15.5 2.73001ZM13 9H4V4H14L13 9ZM3 12C2.60444 12 2.21775 12.1173 1.88885 12.3371C1.55996 12.5568 1.30363 12.8692 1.15225 13.2346C1.00088 13.6001 0.961251 14.0022 1.03842 14.3902C1.11559 14.7781 1.30608 15.1345 1.58578 15.4142C1.86549 15.6939 2.22187 15.8844 2.60983 15.9616C2.99779 16.0387 3.39993 15.9991 3.76538 15.8477C4.13083 15.6964 4.44317 15.44 4.66293 15.1111C4.8827 14.7822 5 14.3956 5 14C5 13.4696 4.78929 12.9609 4.41422 12.5858C4.03914 12.2107 3.53043 12 3 12ZM13 12C12.6044 12 12.2178 12.1173 11.8889 12.3371C11.56 12.5568 11.3036 12.8692 11.1523 13.2346C11.0009 13.6001 10.9613 14.0022 11.0384 14.3902C11.1156 14.7781 11.3061 15.1345 11.5858 15.4142C11.8655 15.6939 12.2219 15.8844 12.6098 15.9616C12.9978 16.0387 13.3999 15.9991 13.7654 15.8477C14.1308 15.6964 14.4432 15.44 14.6629 15.1111C14.8827 14.7822 15 14.3956 15 14C15 13.4696 14.7893 12.9609 14.4142 12.5858C14.0391 12.2107 13.5304 12 13 12Z" fill="#292929"/>
</svg>
