<svg width="17" height="16" viewBox="0 0 17 16" fill="none" xmlns="http://www.w3.org/2000/svg">
<path fill-rule="evenodd" clip-rule="evenodd" d="M15.5472 4.66962C15.3585 4.45767 15.1271 4.28795 14.8683 4.17157C14.6095 4.05519 14.329 3.99478 14.0452 3.99425H13.6622L11.9384 0.546764C11.805 0.335371 11.5977 0.181125 11.3569 0.113963C11.116 0.0468018 10.8589 0.0715278 10.6353 0.183333C10.4117 0.295139 10.2376 0.486056 10.1468 0.719005C10.0561 0.951954 10.0551 1.21031 10.1441 1.44393L11.4243 3.99425H4.65034L5.93053 1.44393C6.04621 1.20568 6.06347 0.931462 5.97858 0.680582C5.8937 0.429703 5.71351 0.222298 5.47693 0.103227C5.2399 -0.013186 4.96664 -0.031919 4.71593 0.0510227C4.46522 0.133964 4.25707 0.311959 4.13623 0.546764L2.4125 3.99425H2.02945C1.744 3.99236 1.4614 4.05109 1.20036 4.16659C0.939316 4.28208 0.705799 4.4517 0.515211 4.6642C0.324624 4.87671 0.181316 5.12725 0.0948075 5.39928C0.00829922 5.67131 -0.0194546 5.95859 0.0133785 6.24215L1.02141 14.2459C1.08539 14.734 1.32574 15.1818 1.69712 15.5049C2.0685 15.828 2.54524 16.0041 3.03748 15.9999H13.0573C13.5496 16.0041 14.0263 15.828 14.3977 15.5049C14.7691 15.1818 15.0094 14.734 15.0734 14.2459L16.0814 6.24215C16.1092 5.95713 16.0759 5.66948 15.9838 5.39833C15.8916 5.12718 15.7428 4.87875 15.5472 4.66962ZM13.0573 14.004H3.03748L2.02945 6.01032H14.0654L13.0573 14.004ZM6.0011 11.988C6.26845 11.988 6.52483 11.8817 6.71387 11.6927C6.90292 11.5036 7.00913 11.2473 7.00913 10.9799V8.96385C7.00913 8.69651 6.90292 8.44012 6.71387 8.25108C6.52483 8.06204 6.26845 7.95582 6.0011 7.95582C5.73375 7.95582 5.47737 8.06204 5.28833 8.25108C5.09929 8.44012 4.99307 8.69651 4.99307 8.96385V10.9799C4.99307 11.2473 5.09929 11.5036 5.28833 11.6927C5.47737 11.8817 5.73375 11.988 6.0011 11.988ZM10.0332 11.988C10.3006 11.988 10.557 11.8817 10.746 11.6927C10.9351 11.5036 11.0413 11.2473 11.0413 10.9799V8.96385C11.0413 8.69651 10.9351 8.44012 10.746 8.25108C10.557 8.06204 10.3006 7.95582 10.0332 7.95582C9.76589 7.95582 9.50951 8.06204 9.32046 8.25108C9.13142 8.44012 9.0252 8.69651 9.0252 8.96385V10.9799C9.0252 11.2473 9.13142 11.5036 9.32046 11.6927C9.50951 11.8817 9.76589 11.988 10.0332 11.988Z" fill="white"/>
</svg>
