<svg width="17" height="16" viewBox="0 0 17 16" fill="none" xmlns="http://www.w3.org/2000/svg">
<path fill-rule="evenodd" clip-rule="evenodd" d="M10.0198 8.13437L15.7031 2.45112C15.8513 2.33255 15.9728 2.18395 16.0595 2.01514C16.1463 1.84633 16.1964 1.66109 16.2065 1.47156C16.2167 1.28203 16.1867 1.09251 16.1184 0.915399C16.0502 0.738284 15.9453 0.577555 15.8106 0.443823C15.6759 0.31009 15.5145 0.206327 15.3369 0.139357C15.1593 0.0723877 14.9696 0.0436834 14.7801 0.0551853C14.5907 0.0666872 14.4058 0.11814 14.2376 0.206103C14.0694 0.294065 13.9217 0.416597 13.8042 0.565642L8.10743 6.20853L2.42415 0.53868C2.30838 0.384319 2.16078 0.256621 1.99137 0.164263C1.82196 0.0719063 1.6347 0.017078 1.44224 0.00339989C1.24977 -0.0102783 1.05658 0.0175531 0.875805 0.0850236C0.695034 0.152494 0.530885 0.257983 0.394447 0.394421C0.25801 0.530858 0.152479 0.69509 0.0850088 0.875861C0.0175383 1.05663 -0.0102931 1.24975 0.0033851 1.44221C0.0170632 1.63468 0.0719326 1.82197 0.16429 1.99138C0.256647 2.1608 0.384345 2.30839 0.538707 2.42416L6.20851 8.10741L0.538707 13.7773C0.332156 14.0354 0.227775 14.3605 0.245461 14.6906C0.263147 15.0208 0.401644 15.3329 0.634592 15.5675C0.86754 15.8022 1.17865 15.9429 1.50866 15.9629C1.83866 15.983 2.16453 15.8808 2.42415 15.6761L8.10743 9.99289L13.7772 15.6761C14.0349 15.8968 14.3663 16.0121 14.7052 15.999C15.0442 15.9859 15.3657 15.8454 15.6055 15.6055C15.8454 15.3657 15.9859 15.0441 15.999 14.7052C16.0121 14.3663 15.8968 14.0349 15.6762 13.7773L10.0198 8.13437Z" fill="black"/>
</svg>
