<svg width="17" height="16" viewBox="0 0 17 16" fill="none" xmlns="http://www.w3.org/2000/svg">
<path fill-rule="evenodd" clip-rule="evenodd" d="M15.7354 14.2705L10.8807 9.39557C11.7372 8.16696 12.1013 6.66163 11.9009 5.17742C11.7004 3.6932 10.9501 2.3383 9.79843 1.38087C8.64674 0.423449 7.17758 -0.0667494 5.68173 0.00731238C4.18587 0.0813741 2.77235 0.714318 1.72086 1.78083C0.669372 2.84733 0.0565736 4.26969 0.00373602 5.76645C-0.0491016 7.2632 0.461876 8.72525 1.43554 9.86324C2.40921 11.0012 3.77459 11.7323 5.2615 11.9116C6.7484 12.091 8.24847 11.7056 9.46481 10.8318L14.3094 15.7067C14.4039 15.8004 14.5159 15.8746 14.6392 15.9249C14.7624 15.9753 14.8943 16.0008 15.0275 16C15.2275 15.9991 15.4228 15.939 15.5886 15.8272C15.7545 15.7154 15.8834 15.5569 15.9592 15.3718C16.035 15.1866 16.0542 14.9832 16.0143 14.7872C15.9745 14.5911 15.8775 14.4113 15.7354 14.2705ZM5.98562 9.93164C5.18549 9.93164 4.40331 9.69436 3.73802 9.24983C3.07273 8.8053 2.5542 8.17351 2.24801 7.43428C1.94181 6.69505 1.86171 5.88162 2.01781 5.09686C2.17391 4.3121 2.5592 3.59122 3.12498 3.02543C3.69076 2.45965 4.41161 2.07434 5.19637 1.91824C5.98113 1.76214 6.79456 1.84229 7.53379 2.14849C8.27302 2.45469 8.90484 2.97319 9.34937 3.63848C9.7939 4.30377 10.0312 5.08594 10.0312 5.88608C10.0312 6.95903 9.60496 7.98804 8.84627 8.74673C8.08758 9.50542 7.05857 9.93164 5.98562 9.93164Z" fill="#C2C2C2"/>
</svg>
