<svg width="16" height="16" viewBox="0 0 16 16" fill="none" xmlns="http://www.w3.org/2000/svg">
<path fill-rule="evenodd" clip-rule="evenodd" d="M8 0C6.41775 0 4.87104 0.469185 3.55544 1.34824C2.23985 2.22729 1.21447 3.47673 0.608967 4.93854C0.00346553 6.40035 -0.154961 8.00888 0.153721 9.56073C0.462402 11.1126 1.22433 12.538 2.34315 13.6569C3.46197 14.7757 4.88743 15.5376 6.43928 15.8463C7.99113 16.155 9.59966 15.9965 11.0615 15.391C12.5233 14.7855 13.7727 13.7602 14.6518 12.4446C15.5308 11.129 16 9.58225 16 8C16 5.87827 15.1571 3.84343 13.6569 2.34314C12.1566 0.842849 10.1217 0 8 0ZM8 14C6.81332 14 5.65328 13.6481 4.66658 12.9888C3.67989 12.3295 2.91085 11.3925 2.45673 10.2961C2.0026 9.19974 1.88378 7.99334 2.11529 6.82945C2.3468 5.66557 2.91825 4.59647 3.75736 3.75735C4.59648 2.91824 5.66557 2.34681 6.82946 2.1153C7.99335 1.88378 9.19975 2.0026 10.2961 2.45673C11.3925 2.91085 12.3295 3.67989 12.9888 4.66658C13.6481 5.65328 14 6.81331 14 8C14 9.5913 13.3679 11.1174 12.2426 12.2426C11.1174 13.3679 9.5913 14 8 14ZM11 7H9V5C9 4.73478 8.89465 4.48043 8.70711 4.29289C8.51958 4.10536 8.26522 4 8 4C7.73479 4 7.48043 4.10536 7.2929 4.29289C7.10536 4.48043 7 4.73478 7 5V8C7 8.26522 7.10536 8.51957 7.2929 8.70711C7.48043 8.89464 7.73479 9 8 9H11C11.2652 9 11.5196 8.89464 11.7071 8.70711C11.8946 8.51957 12 8.26522 12 8C12 7.73478 11.8946 7.48043 11.7071 7.29289C11.5196 7.10536 11.2652 7 11 7Z" fill="white"/>
</svg>
