<svg width="16" height="16" viewBox="0 0 16 16" fill="none" xmlns="http://www.w3.org/2000/svg">
<path fill-rule="evenodd" clip-rule="evenodd" d="M11.79 8.26001C12.5783 7.35781 13.0088 6.19805 13 5C13 3.67392 12.4732 2.40216 11.5355 1.46448C10.5978 0.526796 9.32608 0 8 0C6.67392 0 5.40216 0.526796 4.46448 1.46448C3.5268 2.40216 3 3.67392 3 5C3.00319 6.20311 3.448 7.36319 4.25 8.26001C3.02003 8.63506 1.94309 9.39534 1.17792 10.4288C0.412742 11.4622 -0.000188497 12.7141 6.45506e-08 14C6.45506e-08 14.5304 0.210712 15.0391 0.585785 15.4142C0.960858 15.7893 1.46957 16 2 16H14C14.5304 16 15.0391 15.7893 15.4142 15.4142C15.7893 15.0391 16 14.5304 16 14C16.0028 12.7192 15.5957 11.471 14.8382 10.4382C14.0806 9.40542 13.0125 8.64212 11.79 8.26001ZM8 2C8.59334 2 9.17337 2.17594 9.66672 2.50558C10.1601 2.83523 10.5446 3.30378 10.7716 3.85196C10.9987 4.40014 11.0581 5.00332 10.9424 5.58527C10.8266 6.16721 10.5409 6.70175 10.1213 7.12131C9.70175 7.54086 9.16721 7.8266 8.58527 7.94235C8.00332 8.05811 7.40014 7.9987 6.85196 7.77164C6.30378 7.54457 5.83523 7.16007 5.50558 6.66672C5.17594 6.17337 5 5.59334 5 5C5 4.20435 5.31608 3.4413 5.87869 2.87869C6.4413 2.31608 7.20435 2 8 2ZM2 14C2 12.9391 2.42142 11.9217 3.17157 11.1716C3.92172 10.4214 4.93913 10 6 10H10C11.0609 10 12.0783 10.4214 12.8284 11.1716C13.5786 11.9217 14 12.9391 14 14H2Z" fill="white"/>
</svg>
